<svg width="53" height="46" viewBox="0 0 53 46" fill="none" xmlns="http://www.w3.org/2000/svg">
<path d="M45.6745 45.26H7.8845C5.2945 45.26 3.1745 43.15 3.1745 40.55V24.55C3.1745 24.32 3.2845 24.1 3.4645 23.96C3.6445 23.82 3.8845 23.77 4.1145 23.83L13.9045 26.35C14.2345 26.43 14.4645 26.73 14.4645 27.08V31.02C14.4645 31.64 14.9645 32.14 15.5845 32.14C16.2045 32.14 16.7045 31.64 16.7045 31.02V28.04C16.7045 27.81 16.8145 27.59 16.9945 27.45C17.1745 27.31 17.4145 27.26 17.6445 27.32L27.0545 29.74L36.5545 27.24C36.7745 27.18 37.0145 27.23 37.2045 27.37C37.3845 27.51 37.4945 27.73 37.4945 27.96V31.02C37.4945 31.64 37.9945 32.14 38.6145 32.14C39.2345 32.14 39.7345 31.64 39.7345 31.02V26.98C39.7345 26.64 39.9645 26.34 40.2945 26.25L49.4345 23.84C49.6545 23.78 49.8945 23.83 50.0845 23.97C50.2645 24.11 50.3745 24.33 50.3745 24.56V40.55C50.3745 43.14 48.2645 45.26 45.6645 45.26H45.6745ZM4.6745 25.52V40.56C4.6745 42.33 6.1145 43.77 7.8845 43.77H45.6845C47.4545 43.77 48.8945 42.33 48.8945 40.56V25.54L41.2545 27.55V31.02C41.2545 32.47 40.0745 33.64 38.6345 33.64C37.1945 33.64 36.0145 32.46 36.0145 31.02V28.93L27.2645 31.23C27.1445 31.26 27.0145 31.26 26.8845 31.23L18.2245 29V31.01C18.2245 32.46 17.0445 33.63 15.6045 33.63C14.1645 33.63 12.9845 32.45 12.9845 31.01V27.65L4.6945 25.52H4.6745Z" fill="#3D3935"/>
<path d="M34.8945 7.35H17.3545C16.9445 7.35 16.6045 7.01 16.6045 6.6V0.75C16.6045 0.34 16.9445 0 17.3545 0H34.8945C35.3045 0 35.6445 0.34 35.6445 0.75V6.6C35.6445 7.01 35.3045 7.35 34.8945 7.35ZM18.1145 5.85H34.1545V1.5H18.1145V5.85Z" fill="#1B1E21" fill-opacity="0.7"/>
<path d="M31.3545 7.23999H21.0145C20.6045 7.23999 20.2645 6.89999 20.2645 6.48999V3.48999C20.2645 3.07999 20.6045 2.73999 21.0145 2.73999H31.3545C31.7645 2.73999 32.1045 3.07999 32.1045 3.48999V6.48999C32.1045 6.89999 31.7645 7.23999 31.3545 7.23999ZM21.7545 5.73999H30.5945V4.23999H21.7545V5.73999Z" fill="#1B1E21" fill-opacity="0.7"/>
<path d="M15.5945 33.64C14.1445 33.64 12.9745 32.46 12.9745 31.02V26.09C12.9745 24.64 14.1545 23.47 15.5945 23.47C17.0345 23.47 18.2145 24.65 18.2145 26.09V31.02C18.2145 32.47 17.0345 33.64 15.5945 33.64ZM15.5945 24.97C14.9745 24.97 14.4745 25.47 14.4745 26.09V31.02C14.4745 31.64 14.9745 32.14 15.5945 32.14C16.2145 32.14 16.7145 31.64 16.7145 31.02V26.09C16.7145 25.47 16.2145 24.97 15.5945 24.97Z" fill="#1B1E21" fill-opacity="0.7"/>
<path d="M38.6145 33.64C37.1645 33.64 35.9945 32.46 35.9945 31.02V26.09C35.9945 24.64 37.1745 23.47 38.6145 23.47C40.0545 23.47 41.2345 24.65 41.2345 26.09V31.02C41.2345 32.47 40.0545 33.64 38.6145 33.64ZM38.6145 24.97C37.9945 24.97 37.4945 25.47 37.4945 26.09V31.02C37.4945 31.64 37.9945 32.14 38.6145 32.14C39.2345 32.14 39.7345 31.64 39.7345 31.02V26.09C39.7345 25.47 39.2345 24.97 38.6145 24.97Z" fill="#1B1E21" fill-opacity="0.7"/>
<path d="M27.0645 31.26C27.0045 31.26 26.9345 31.26 26.8745 31.24L17.2745 28.77C16.9445 28.68 16.7145 28.39 16.7145 28.04V26.09C16.7145 25.47 16.2145 24.97 15.5945 24.97C14.9745 24.97 14.4745 25.47 14.4745 26.09V27.07C14.4745 27.3 14.3645 27.52 14.1845 27.66C14.0045 27.8 13.7645 27.85 13.5345 27.79L1.5645 24.72C1.1945 24.63 0.964499 24.27 1.0045 23.9C1.0045 23.86 1.0245 23.81 1.0345 23.77V11.71C1.0345 8.51003 3.6445 5.91003 6.8445 5.91003H46.7145C49.9145 5.91003 52.5145 8.51003 52.5145 11.71V23.84C52.5145 23.84 52.5145 23.88 52.5245 23.9C52.5745 24.27 52.3545 24.63 51.9845 24.72L40.6745 27.7C40.4545 27.76 40.2145 27.7 40.0245 27.57C39.8445 27.43 39.7345 27.21 39.7345 26.98V26.1C39.7345 25.48 39.2345 24.98 38.6145 24.98C37.9945 24.98 37.4945 25.48 37.4945 26.1V27.97C37.4945 28.31 37.2645 28.61 36.9345 28.7L27.2445 31.25C27.1845 31.27 27.1145 31.27 27.0545 31.27L27.0645 31.26ZM18.2145 27.46L27.0645 29.73L36.0045 27.38V26.09C36.0045 24.64 37.1845 23.47 38.6245 23.47C40.0645 23.47 41.1945 24.6 41.2445 26L51.0245 23.43V11.72C51.0245 9.35003 49.0945 7.42003 46.7245 7.42003H6.8445C4.4745 7.42003 2.5445 9.35003 2.5445 11.72V23.43L12.9745 26.11V26.09C12.9745 24.64 14.1545 23.47 15.5945 23.47C17.0345 23.47 18.2145 24.65 18.2145 26.09V27.46Z" fill="#1B1E21" fill-opacity="0.7"/>
</svg>
