<svg width="38" height="63" viewBox="0 0 38 63" fill="none" xmlns="http://www.w3.org/2000/svg">
<g clip-path="url(#clip0_1408_5404)">
<path d="M29.1263 56.7465C29.1263 56.8453 29.106 56.9442 29.0655 57.043C28.8022 58.526 28.5794 59.9891 28.3971 61.4325C28.3566 61.7884 28.0325 62.0652 27.668 62.0652C27.6477 62.0652 27.6072 62.0652 27.5869 62.0652C27.1818 62.0257 26.8983 61.6698 26.9388 61.2743C27.1008 60.0287 27.2831 58.7632 27.5059 57.4978H23.7588C23.6575 58.8028 23.5765 60.1077 23.536 61.3929C23.536 61.7884 23.1917 62.085 22.8068 62.085H22.7866C22.3815 62.085 22.0574 61.7488 22.0777 61.3534C22.1182 60.088 22.1992 58.8028 22.3005 57.4978H19.3028V61.3732C19.3028 61.7686 18.9787 62.085 18.5736 62.085C18.1685 62.085 17.8444 61.7686 17.8444 61.3732V57.4978H14.8467C14.948 58.8028 15.029 60.088 15.0695 61.3534C15.0695 61.7488 14.7657 62.085 14.3606 62.085H14.3403C13.9555 62.085 13.6112 61.7686 13.6112 61.3929C13.5707 60.1077 13.4896 58.8028 13.3884 57.4978H9.64125C9.86405 58.7632 10.0463 60.0287 10.2084 61.2743C10.2489 61.6698 9.96532 62.0257 9.56023 62.0652C9.53998 62.0652 9.49947 62.0652 9.47921 62.0652C9.11463 62.0652 8.79055 61.7884 8.75004 61.4325C7.85883 54.1761 5.97514 46.5835 3.17999 38.8723C1.43809 38.6153 0.0810184 37.1521 0.0810184 35.3726C0.0810184 33.4152 1.72165 31.8136 3.72687 31.8136H33.4811C35.4863 31.8136 37.1269 33.4152 37.1269 35.3726C37.1269 37.1521 35.7698 38.6153 34.0279 38.8723C31.8404 44.9226 30.2201 50.9136 29.1871 56.7069C29.1871 56.7069 29.1871 56.7267 29.1871 56.7465H29.2073H29.1263ZM7.98036 49.7471H12.4364C12.1933 48.2444 11.93 46.7021 11.6262 45.1599H6.74482C7.19043 46.7021 7.61578 48.2246 8.00062 49.7471H7.98036ZM19.2622 38.9119V43.7363H24.2449C24.5892 42.1347 24.9538 40.5332 25.3589 38.9119H19.2622ZM32.3873 38.9119H26.8983C26.4932 40.5332 26.1083 42.1347 25.764 43.7363H30.7872C31.2733 42.1347 31.8202 40.5332 32.3873 38.9119ZM17.8039 38.9119H11.7072C12.1123 40.5332 12.4972 42.1347 12.8212 43.7363H17.8039V38.9119ZM4.67884 38.9119C5.24597 40.5134 5.79285 42.1347 6.27896 43.7363H11.3021C10.9578 42.1347 10.5932 40.5332 10.1679 38.9119H4.67884ZM13.915 49.7471H17.8039V45.1599H13.1048C13.4086 46.7021 13.6922 48.2246 13.915 49.7471ZM19.2622 49.7471H23.1512C23.3942 48.2444 23.6575 46.7021 23.9613 45.1599H19.2622V49.7471ZM24.6297 49.7471H29.0858C29.4706 48.2246 29.896 46.7021 30.3416 45.1599H25.4602C25.1564 46.7021 24.8728 48.2246 24.65 49.7471H24.6297ZM3.66611 37.4882H33.4203C34.6153 37.4882 35.5876 36.5392 35.5876 35.3726C35.5876 34.206 34.6153 33.257 33.4203 33.257H3.66611C2.47108 33.257 1.49885 34.206 1.49885 35.3726C1.49885 36.5392 2.47108 37.4882 3.66611 37.4882ZM13.2061 56.0149C13.0643 54.4133 12.8618 52.792 12.6187 51.1707H8.28418C8.66902 52.792 9.01335 54.4133 9.29692 56.0149H13.1858H13.2061ZM17.8039 56.0149V51.1707H14.1175C14.3403 52.8118 14.5429 54.4331 14.6847 56.0149H17.8039ZM22.3815 56.0149C22.5233 54.4133 22.7258 52.792 22.9486 51.1707H19.2622V56.0149H22.3815ZM27.749 56.0149C28.0325 54.4133 28.3769 52.792 28.7617 51.1707H24.4475C24.2247 52.8118 24.0221 54.4331 23.8601 56.0149H27.749Z" fill="#3D3935"/>
<path d="M3.52432 14.6513C3.52432 14.2954 3.54458 13.9592 3.58509 13.6033C3.58509 13.5638 3.58509 13.5045 3.58509 13.4649C3.82814 10.4991 4.98266 7.77051 6.76508 5.57579C6.78533 5.53625 6.82584 5.4967 6.8461 5.45716C9.23615 2.5704 12.72 0.593172 16.6696 0.118637C16.7101 0.118637 16.7304 0.118637 16.7709 0.118637C17.338 0.05932 17.9254 0.0197754 18.4926 0.0197754C21.6523 0.0197754 24.5892 0.988618 26.9995 2.60995C27.0401 2.62972 27.0603 2.64949 27.1008 2.68904C29.896 4.60695 31.9822 7.41461 32.9342 10.7166C32.9544 10.7759 32.9747 10.8352 32.9747 10.9143C33.2988 12.1204 33.5013 13.3661 33.5013 14.671C33.5013 18.3289 32.1037 21.6704 29.815 24.2408C29.7744 24.3397 29.6934 24.4188 29.5922 24.4781C27.3439 26.9101 24.2652 28.5907 20.8016 29.1246C20.7408 29.1246 20.6801 29.1641 20.6193 29.1641C20.6193 29.1641 20.5991 29.1641 20.5788 29.1641C19.8901 29.263 19.2015 29.3223 18.4723 29.3223C15.1708 29.3223 12.1123 28.2546 9.64125 26.4949C9.56023 26.4553 9.47921 26.396 9.41845 26.3169C5.81311 23.6477 3.48381 19.4362 3.48381 14.671L3.52432 14.6513ZM15.2721 6.66327C15.9202 6.08987 16.5886 5.57579 17.3178 5.12103C16.6696 4.27082 16.224 3.1438 16.1025 1.66088C13.4896 2.13541 11.1401 3.32175 9.27666 5.02217C11.1198 5.06171 13.1656 5.61533 15.2721 6.64349V6.66327ZM5.44852 11.3295C6.35998 10.7364 7.49425 10.3014 8.72979 10.1234C9.90456 9.94547 11.0591 10.0246 12.0921 10.3211C12.4972 9.7082 12.9225 9.11503 13.4086 8.54163C13.6517 8.24505 13.915 7.98801 14.1783 7.73097C11.849 6.68304 9.6615 6.26782 7.85883 6.58418C6.74482 7.96824 5.93463 9.58956 5.44852 11.3493V11.3295ZM8.9931 24.0233C8.52724 19.6339 9.37794 15.2642 11.3426 11.6063C10.5932 11.4482 9.78303 11.4086 8.95259 11.5272C7.19043 11.7843 5.5903 12.7136 5.04343 13.722C5.02317 14.0186 5.00292 14.3151 5.00292 14.6315C5.00292 18.2894 6.54228 21.6111 8.9931 24.0036V24.0233ZM18.5128 27.8592C18.7559 27.8592 18.9787 27.8394 19.2217 27.8196C18.4723 26.5344 18.209 24.8142 17.9254 22.9161C17.4596 19.8118 16.933 16.2924 14.2593 13.287C13.8137 12.7927 13.2871 12.3972 12.72 12.1006C10.5932 15.9365 9.82354 20.6818 10.654 25.3679C12.8618 26.9101 15.5759 27.8394 18.5128 27.8394V27.8592ZM28.3566 23.707C26.716 18.8825 23.374 14.1965 19.08 10.7957C17.9052 9.84661 16.6899 9.05571 15.5151 8.40323C15.1708 8.73936 14.8467 9.07549 14.5429 9.45116C14.1581 9.90592 13.8137 10.3805 13.4896 10.8748C14.1986 11.2504 14.8467 11.7447 15.3936 12.3577C18.3508 15.6794 18.9382 19.5746 19.404 22.7184C19.7281 24.834 20.0117 26.6531 20.9231 27.6614C23.8196 27.1474 26.4122 25.7435 28.3566 23.7268V23.707ZM32.043 14.6513C32.043 13.5045 31.8809 12.3972 31.5974 11.3295C29.7137 9.37207 26.9388 8.79867 24.2652 8.24505C22.1182 7.81006 19.9307 7.3553 18.3508 6.14919C17.7634 6.50509 17.1963 6.92031 16.6494 7.37507C17.7634 8.00778 18.8977 8.7789 20.0117 9.66865C24.2652 13.0497 27.6274 17.6369 29.4504 22.4218C31.091 20.2271 32.0632 17.5578 32.0632 14.6513H32.043ZM26.3514 3.89514C23.9613 3.97423 21.7536 4.46854 19.7889 5.37807C21.0447 6.10964 22.7055 6.46554 24.5487 6.84122C26.5539 7.23666 28.7212 7.69142 30.6049 8.7789C29.6124 6.84122 28.1338 5.16057 26.3514 3.91492V3.89514ZM18.5128 1.44338C18.1887 1.44338 17.8647 1.46315 17.5406 1.48293C17.6419 2.74835 18.0267 3.67765 18.5938 4.38945C20.2952 3.51947 22.1587 2.9263 24.1436 2.64949C22.422 1.87837 20.518 1.44338 18.5128 1.44338Z" fill="#1B1E21" fill-opacity="0.7"/>
</g>
<defs>
<clipPath id="clip0_1408_5404">
<rect width="38" height="63" fill="white"/>
</clipPath>
</defs>
</svg>
