<svg width="61" height="58" viewBox="0 0 61 58" fill="none" xmlns="http://www.w3.org/2000/svg">
<path d="M55.1632 15.5583H1.44388V17.1875H55.1632V15.5583Z" fill="#3D3935"/>
<path d="M13.6513 8.99289H11.8137C10.8456 8.99289 10.058 8.2109 10.058 7.2497V1.74319C10.058 0.781991 10.8456 0 11.8137 0H13.6513C14.6194 0 15.407 0.781991 15.407 1.74319V7.2497C15.407 8.2109 14.6194 8.99289 13.6513 8.99289ZM11.8137 1.62915L11.6988 7.2497L13.6513 7.36374C13.6513 7.36374 13.7662 7.31487 13.7662 7.2497V1.74319L11.8137 1.62915Z" fill="#3D3935"/>
<path d="M44.8262 8.99289H42.9886C42.0205 8.99289 41.2329 8.2109 41.2329 7.2497V1.74319C41.2329 0.781991 42.0205 0 42.9886 0H44.8262C45.7943 0 46.5819 0.781991 46.5819 1.74319V7.2497C46.5819 8.2109 45.7943 8.99289 44.8262 8.99289ZM42.9886 1.62915L42.8737 7.2497L44.8262 7.36374C44.8262 7.36374 44.9411 7.31487 44.9411 7.2497V1.74319L42.9886 1.62915Z" fill="#3D3935"/>
<path d="M50.5198 55H5.46381C2.44477 55 0 52.5563 0 49.5749V9.18837C0 6.19073 2.46118 3.76331 5.46381 3.76331H11.6824V7.36372H13.7498V3.76331H42.8573V7.36372H44.9247V3.76331H50.5198C53.5388 3.76331 55.9836 6.20703 55.9836 9.18837V49.5749C55.9836 52.5726 53.5224 55 50.5198 55ZM5.46381 5.39245C3.3472 5.39245 1.64079 7.10306 1.64079 9.18837V49.5749C1.64079 51.6765 3.36361 53.3708 5.46381 53.3708H50.5198C52.6364 53.3708 54.3428 51.6602 54.3428 49.5749V9.18837C54.3428 7.08677 52.62 5.39245 50.5198 5.39245H46.5655V8.99287H41.2165V5.39245H15.3906V8.99287H10.0416V5.39245H5.46381Z" fill="#3D3935"/>
<path d="M15.4562 28.8196H9.56579C8.86025 28.8196 8.28598 28.2493 8.28598 27.5488V21.7002C8.28598 20.9996 8.86025 20.4294 9.56579 20.4294H15.4562C16.1617 20.4294 16.736 20.9996 16.736 21.7002V27.5488C16.736 28.2493 16.1617 28.8196 15.4562 28.8196ZM9.92677 27.1904H15.1116V22.0423H9.92677V27.1904Z" fill="#1B1E21" fill-opacity="0.7"/>
<path d="M24.9399 28.8196H19.9848C19.0167 28.8196 18.2291 28.0376 18.2291 27.0764V22.1564C18.2291 21.1952 19.0167 20.4132 19.9848 20.4132H24.9399C25.908 20.4132 26.6956 21.1952 26.6956 22.1564V27.0764C26.6956 28.0376 25.908 28.8196 24.9399 28.8196ZM19.9848 22.0424L19.8699 27.0764L24.9399 27.1905C24.9399 27.1905 25.0548 27.1416 25.0548 27.0764V22.1564L19.9848 22.0424Z" fill="#1B1E21" fill-opacity="0.7"/>
<path d="M34.8831 28.8196H29.9279C28.9599 28.8196 28.1723 28.0376 28.1723 27.0764V22.1564C28.1723 21.1952 28.9599 20.4132 29.9279 20.4132H34.8831C35.8512 20.4132 36.6388 21.1952 36.6388 22.1564V27.0764C36.6388 28.0376 35.8512 28.8196 34.8831 28.8196ZM29.9279 22.0424L29.8131 27.0764L34.8831 27.1905C34.8831 27.1905 34.998 27.1416 34.998 27.0764V22.1564L29.9279 22.0424Z" fill="#1B1E21" fill-opacity="0.7"/>
<path d="M44.8263 28.8196H39.8711C38.9031 28.8196 38.1155 28.0376 38.1155 27.0764V22.1564C38.1155 21.1952 38.9031 20.4132 39.8711 20.4132H44.8263C45.7944 20.4132 46.5819 21.1952 46.5819 22.1564V27.0764C46.5819 28.0376 45.7944 28.8196 44.8263 28.8196ZM39.8711 22.0424L39.7563 27.0764L44.8263 27.1905C44.8263 27.1905 44.9411 27.1416 44.9411 27.0764V22.1564L39.8711 22.0424Z" fill="#1B1E21" fill-opacity="0.7"/>
<path d="M15.4562 38.5945H9.56579C8.86025 38.5945 8.28598 38.0242 8.28598 37.3237V31.4751C8.28598 30.7745 8.86025 30.2043 9.56579 30.2043H15.4562C16.1617 30.2043 16.736 30.7745 16.736 31.4751V37.3237C16.736 38.0242 16.1617 38.5945 15.4562 38.5945ZM9.92677 36.9653H15.1116V31.8172H9.92677V36.9653Z" fill="#1B1E21" fill-opacity="0.7"/>
<path d="M24.9399 38.5945H19.9848C19.0167 38.5945 18.2291 37.8125 18.2291 36.8513V31.9313C18.2291 30.9701 19.0167 30.1881 19.9848 30.1881H24.9399C25.908 30.1881 26.6956 30.9701 26.6956 31.9313V36.8513C26.6956 37.8125 25.908 38.5945 24.9399 38.5945ZM19.9848 31.8173L19.8699 36.8513L24.9399 36.9654C24.9399 36.9654 25.0548 36.9165 25.0548 36.8513V31.9313L19.9848 31.8173Z" fill="#1B1E21" fill-opacity="0.7"/>
<path d="M34.8831 38.5945H29.9279C28.9599 38.5945 28.1723 37.8125 28.1723 36.8513V31.9313C28.1723 30.9701 28.9599 30.1881 29.9279 30.1881H34.8831C35.8512 30.1881 36.6388 30.9701 36.6388 31.9313V36.8513C36.6388 37.8125 35.8512 38.5945 34.8831 38.5945ZM29.9279 31.8173L29.8131 36.8513L34.8831 36.9654C34.8831 36.9654 34.998 36.9165 34.998 36.8513V31.9313L29.9279 31.8173Z" fill="#1B1E21" fill-opacity="0.7"/>
<path d="M44.8263 38.5945H39.8711C38.9031 38.5945 38.1155 37.8125 38.1155 36.8513V31.9313C38.1155 30.9701 38.9031 30.1881 39.8711 30.1881H44.8263C45.7944 30.1881 46.5819 30.9701 46.5819 31.9313V36.8513C46.5819 37.8125 45.7944 38.5945 44.8263 38.5945ZM39.8711 31.8173L39.7563 36.8513L44.8263 36.9654C44.8263 36.9654 44.9411 36.9165 44.9411 36.8513V31.9313L39.8711 31.8173Z" fill="#1B1E21" fill-opacity="0.7"/>
<path d="M15.4562 48.3694H9.56579C8.86025 48.3694 8.28598 47.7992 8.28598 47.0986V41.25C8.28598 40.5494 8.86025 39.9792 9.56579 39.9792H15.4562C16.1617 39.9792 16.736 40.5494 16.736 41.25V47.0986C16.736 47.7992 16.1617 48.3694 15.4562 48.3694ZM9.92677 46.7402H15.1116V41.5921H9.92677V46.7402Z" fill="#1B1E21" fill-opacity="0.7"/>
<path d="M24.9399 48.3694H19.9848C19.0167 48.3694 18.2291 47.5874 18.2291 46.6262V41.7062C18.2291 40.745 19.0167 39.963 19.9848 39.963H24.9399C25.908 39.963 26.6956 40.745 26.6956 41.7062V46.6262C26.6956 47.5874 25.908 48.3694 24.9399 48.3694ZM19.9848 41.5922L19.8699 46.6262L24.9399 46.7403C24.9399 46.7403 25.0548 46.6914 25.0548 46.6262V41.7062L19.9848 41.5922Z" fill="#1B1E21" fill-opacity="0.7"/>
<path d="M34.8831 48.3694H29.9279C28.9599 48.3694 28.1723 47.5874 28.1723 46.6262V41.7062C28.1723 40.745 28.9599 39.963 29.9279 39.963H34.8831C35.8512 39.963 36.6388 40.745 36.6388 41.7062V46.6262C36.6388 47.5874 35.8512 48.3694 34.8831 48.3694ZM29.9279 41.5922L29.8131 46.6262L34.8831 46.7403C34.8831 46.7403 34.998 46.6914 34.998 46.6262V41.7062L29.9279 41.5922Z" fill="#1B1E21" fill-opacity="0.7"/>
<path d="M44.8263 48.3694H39.8711C38.9031 48.3694 38.1155 47.5874 38.1155 46.6262V41.7062C38.1155 40.745 38.9031 39.963 39.8711 39.963H44.8263C45.7944 39.963 46.5819 40.745 46.5819 41.7062V46.6262C46.5819 47.5874 45.7944 48.3694 44.8263 48.3694ZM39.8711 41.5922L39.7563 46.6262L44.8263 46.7403C44.8263 46.7403 44.9411 46.6914 44.9411 46.6262V41.7062L39.8711 41.5922Z" fill="#1B1E21" fill-opacity="0.7"/>
</svg>
