<svg xmlns="http://www.w3.org/2000/svg" fill="none" viewBox="0 0 18 13.5">
<path d="M2.14453 0H15.8555C17.0508 0 18 0.984375 18 2.14453C18 2.17969 18 2.21484 18 2.25V11.25C18 12.4805 16.9805 13.5 15.75 13.5H2.25C1.01953 13.5 0 12.4805 0 11.25V2.25C0 2.21484 0 2.17969 0 2.14453C0 0.984375 0.984375 0 2.14453 0ZM16.3125 4.5L10.8633 8.64844C9.77344 9.49219 8.22656 9.49219 7.13672 8.64844L1.6875 4.5V11.25C1.6875 11.5664 1.93359 11.8125 2.25 11.8125H15.75C16.0664 11.8125 16.3125 11.5664 16.3125 11.25V4.5ZM1.6875 2.14453C1.6875 2.32031 1.75781 2.46094 1.86328 2.53125L8.15625 7.3125C8.64844 7.66406 9.35156 7.66406 9.84375 7.3125L16.1367 2.53125C16.2422 2.46094 16.3125 2.32031 16.3125 2.14453C16.3125 1.89844 16.1016 1.6875 15.8555 1.6875H2.14453C1.89844 1.6875 1.6875 1.89844 1.6875 2.14453Z" fill="#2D2D2D"/>
</svg>