<svg width="220" height="106" viewBox="0 0 220 106" fill="none" xmlns="http://www.w3.org/2000/svg">
<g clip-path="url(#clip0_1_605)">
<path d="M0.931549 63.6215H7.47319V95.9569H0.931549V63.6215Z" fill="#243645"/>
<path d="M11.2675 84.878C11.2632 82.5555 11.9424 80.2838 13.2193 78.3505C14.4961 76.4172 16.3132 74.9093 18.4406 74.0175C20.5678 73.1257 22.9097 72.8901 25.1699 73.3405C27.4301 73.791 29.507 74.9072 31.1375 76.5481C32.7682 78.1887 33.8794 80.2803 34.3303 82.5579C34.7816 84.8354 34.5523 87.1968 33.6715 89.3431C32.7908 91.4891 31.2984 93.3237 29.383 94.6145C27.4678 95.9055 25.2156 96.5943 22.9118 96.5943C21.3794 96.612 19.8593 96.3212 18.4401 95.7388C17.0209 95.1566 15.7313 94.2946 14.6468 93.2033C13.5623 92.1123 12.7048 90.8138 12.1245 89.384C11.5443 87.9545 11.2529 86.4225 11.2675 84.878ZM27.9705 84.878C27.9448 83.8754 27.6264 82.9026 27.0551 82.0816C26.4838 81.2603 25.6851 80.6274 24.7586 80.2614C23.8322 79.8955 22.8194 79.8133 21.847 80.0247C20.8744 80.2361 19.9854 80.7319 19.2908 81.45C18.5964 82.1682 18.1274 83.077 17.9425 84.0626C17.7577 85.048 17.8653 86.0666 18.2517 86.9908C18.6382 87.9149 19.2864 88.7038 20.1152 89.2586C20.9441 89.8133 21.9168 90.1094 22.9118 90.1096C23.5923 90.1289 24.2696 90.0058 24.9007 89.7479C25.5318 89.4899 26.103 89.1031 26.5785 88.6114C27.0537 88.1198 27.423 87.5343 27.6624 86.8918C27.9021 86.2491 28.0069 85.5636 27.9705 84.878Z" fill="#243645"/>
<path d="M60.8528 73.7993V94.8579C60.8528 102.31 55.0743 105.453 49.2305 105.453C47.1756 105.607 45.1181 105.188 43.2835 104.242C41.4489 103.296 39.908 101.86 38.8294 100.09L44.4552 96.8145C44.9015 97.7214 45.6079 98.4726 46.4826 98.9703C47.3573 99.468 48.3602 99.6896 49.3615 99.606C50.02 99.7168 50.6952 99.6735 51.3349 99.4794C51.9745 99.2855 52.5613 98.9461 53.0501 98.4873C53.5387 98.0284 53.9165 97.4625 54.1541 96.8333C54.3917 96.2041 54.4827 95.5283 54.4201 94.8579V92.8136C53.6512 93.7676 52.6698 94.5253 51.5561 95.0255C50.4424 95.5258 49.2273 95.7546 48.0094 95.6934C45.0484 95.6934 42.2088 94.5076 40.1149 92.3969C38.0212 90.2863 36.8449 87.4235 36.8449 84.4385C36.8449 81.4535 38.0212 78.5909 40.1149 76.4803C42.2088 74.3696 45.0484 73.1838 48.0094 73.1838C49.2266 73.1277 50.4398 73.3589 51.5528 73.8587C52.6659 74.3587 53.6477 75.1136 54.4201 76.0634V73.8652L60.8528 73.7993ZM54.4201 84.4385C54.4638 83.3695 54.189 82.3118 53.6316 81.4011C53.0739 80.4907 52.259 79.7691 51.2915 79.3293C50.3239 78.8894 49.2478 78.7513 48.2018 78.9329C47.1557 79.1142 46.1875 79.6071 45.4216 80.3475C44.6554 81.0883 44.1266 82.0429 43.9031 83.0888C43.6793 84.1347 43.7712 85.2244 44.1668 86.2172C44.5623 87.2103 45.2433 88.0611 46.1224 88.6607C47.0015 89.2606 48.0383 89.5814 49.0996 89.5823C49.7926 89.6317 50.4879 89.5344 51.1409 89.2962C51.7942 89.0581 52.3906 88.6849 52.8919 88.2003C53.393 87.7156 53.7881 87.1304 54.0514 86.4826C54.3146 85.8347 54.4402 85.1385 54.4201 84.4385Z" fill="#243645"/>
<path d="M64.625 84.878C64.6207 82.5555 65.3 80.2838 66.5767 78.3505C67.8537 76.4172 69.6708 74.9093 71.798 74.0175C73.9252 73.1257 76.2671 72.8901 78.5273 73.3405C80.7876 73.791 82.8644 74.9072 84.4951 76.5481C86.1256 78.1887 87.2368 80.2803 87.688 82.5579C88.139 84.8354 87.9097 87.1968 87.029 89.3431C86.1483 91.4891 84.6559 93.3237 82.7406 94.6145C80.8252 95.9055 78.5731 96.5943 76.2692 96.5943C74.7371 96.612 73.2167 96.3212 71.7975 95.7388C70.3783 95.1566 69.0887 94.2946 68.0043 93.2033C66.9199 92.1123 66.0623 90.8138 65.482 89.384C64.9017 87.9545 64.6103 86.4225 64.625 84.878ZM81.3281 84.878C81.3023 83.8754 80.9838 82.9026 80.4125 82.0816C79.8413 81.2603 79.0425 80.6274 78.1161 80.2614C77.1899 79.8955 76.1771 79.8133 75.2045 80.0247C74.2318 80.2361 73.3428 80.7319 72.6482 81.45C71.9539 82.1682 71.4849 83.077 71.2999 84.0626C71.1152 85.048 71.2228 86.0666 71.6091 86.9908C71.9957 87.9149 72.6438 88.7038 73.4726 89.2586C74.3016 89.8133 75.2742 90.1094 76.2692 90.1096C76.9463 90.1227 77.6187 89.9951 78.2447 89.7344C78.8705 89.4737 79.4365 89.0858 79.9071 88.5949C80.3777 88.1042 80.7428 87.5206 80.9799 86.8811C81.2168 86.2417 81.3205 85.5596 81.2845 84.878H81.3281Z" fill="#243645"/>
<path d="M90.9449 67.864C90.9449 67.0728 91.1777 66.2992 91.6136 65.6414C92.0498 64.9835 92.6696 64.4707 93.3947 64.1679C94.12 63.865 94.9178 63.7859 95.6877 63.9402C96.4576 64.0945 97.1646 64.4756 97.7198 65.035C98.2749 65.5946 98.6527 66.3074 98.8058 67.0835C98.9591 67.8596 98.8803 68.6641 98.5801 69.395C98.2797 70.126 97.771 70.751 97.1184 71.1905C96.4657 71.63 95.6986 71.8647 94.9134 71.8647C93.8628 71.8591 92.8567 71.4356 92.1136 70.6865C91.3705 69.9377 90.9507 68.9234 90.9449 67.864ZM91.6208 73.7991H98.1624V95.9569H91.6208V73.7991Z" fill="#243645"/>
<path d="M126.684 84.878C126.763 86.3427 126.554 87.8087 126.069 89.1917C125.584 90.5747 124.833 91.8473 123.858 92.9363C122.883 94.0252 121.704 94.9091 120.389 95.5369C119.074 96.1648 117.649 96.5242 116.195 96.5945C114.975 96.6534 113.757 96.442 112.627 95.9748C111.496 95.5076 110.481 94.7962 109.653 93.8907V104.882H103.112V73.7991H109.653V75.8874C110.481 74.9819 111.496 74.2705 112.627 73.8033C113.757 73.3361 114.975 73.1247 116.195 73.1836C117.647 73.2539 119.07 73.6126 120.383 74.239C121.697 74.8657 122.875 75.7475 123.85 76.8341C124.824 77.9208 125.576 79.1906 126.062 80.571C126.549 81.9514 126.76 83.4152 126.684 84.878ZM120.142 84.878C120.116 83.8463 119.79 82.8448 119.206 81.9977C118.621 81.1509 117.802 80.4951 116.852 80.1124C115.901 79.7295 114.859 79.6362 113.857 79.844C112.854 80.0517 111.934 80.5515 111.21 81.2812C110.486 82.011 109.99 82.9387 109.784 83.9496C109.578 84.9606 109.671 86.0103 110.05 86.9686C110.43 87.927 111.08 88.7522 111.921 89.3416C112.761 89.9313 113.754 90.2595 114.778 90.2856C115.492 90.3314 116.208 90.2225 116.877 89.9664C117.546 89.7101 118.153 89.3125 118.657 88.8004C119.161 88.288 119.55 87.673 119.799 86.9966C120.047 86.3201 120.15 85.5978 120.098 84.878H120.142Z" fill="#243645"/>
<path d="M147.05 89.3186C147.05 94.4185 142.689 96.5945 137.892 96.5945C135.975 96.7656 134.052 96.3545 132.369 95.4143C130.687 94.4741 129.322 93.0478 128.45 91.319L134.163 88.0437C134.395 88.8433 134.891 89.5389 135.57 90.0147C136.248 90.4905 137.067 90.7181 137.892 90.6595C139.484 90.6595 140.268 90.1539 140.268 89.2746C140.268 86.8346 129.366 88.1317 129.366 80.4819C129.366 75.6458 133.422 73.2058 138.088 73.2058C139.81 73.1532 141.514 73.5654 143.025 74.4004C144.536 75.2352 145.797 76.4622 146.679 77.9539L140.945 80.9875C140.691 80.407 140.276 79.913 139.75 79.5657C139.223 79.2184 138.608 79.0326 137.979 79.031C136.845 79.031 136.147 79.4707 136.147 80.284C136.235 82.8119 147.05 81.1193 147.05 89.3186Z" fill="#243645"/>
<path d="M171.123 73.7992V95.957H164.581V93.8908C163.82 94.8089 162.855 95.5324 161.763 96.0024C160.672 96.4724 159.485 96.6751 158.301 96.5946C153.94 96.5946 150.081 93.4071 150.081 87.4061V73.7992H156.622V86.4389C156.565 86.9776 156.627 87.5223 156.804 88.0337C156.982 88.5451 157.27 89.0103 157.648 89.3955C158.026 89.7808 158.484 90.0762 158.989 90.2605C159.494 90.4451 160.034 90.5136 160.569 90.4617C162.968 90.4617 164.647 89.0547 164.647 85.9114V73.7992H171.123Z" fill="#243645"/>
<path d="M208.934 82.3722V95.9571H202.392V82.9439C202.392 80.7458 201.324 79.2948 199.23 79.2948C197.137 79.2948 195.785 80.8556 195.785 83.4714V95.9571H189.243V82.9439C189.243 80.7458 188.197 79.2948 186.081 79.2948C183.967 79.2948 182.658 80.8556 182.658 83.4714V95.9571H176.117V73.7995H182.658V75.8438C183.342 74.9408 184.239 74.2246 185.267 73.7601C186.295 73.2955 187.422 73.0974 188.546 73.184C189.674 73.1286 190.797 73.3691 191.806 73.8812C192.815 74.3935 193.675 75.1606 194.302 76.1075C195.032 75.1175 195.999 74.33 197.112 73.8188C198.226 73.3076 199.45 73.089 200.669 73.184C205.641 73.184 208.934 76.8329 208.934 82.3722Z" fill="#243645"/>
<path d="M214.517 73.6674C217.214 73.6674 219.401 71.4627 219.401 68.7433C219.401 66.0239 217.214 63.8195 214.517 63.8195C211.819 63.8195 209.632 66.0239 209.632 68.7433C209.632 71.4627 211.819 73.6674 214.517 73.6674Z" fill="#243645"/>
<path d="M74.961 46.8494C87.594 46.8494 97.8349 36.5254 97.8349 23.7902C97.8349 11.0551 87.594 0.731232 74.961 0.731232C62.328 0.731232 52.0869 11.0551 52.0869 23.7902C52.0869 36.5254 62.328 46.8494 74.961 46.8494Z" fill="#243645"/>
<path d="M126.095 46.8494C138.728 46.8494 148.968 36.5254 148.968 23.7902C148.968 11.0551 138.728 0.731232 126.095 0.731232C113.462 0.731232 103.221 11.0551 103.221 23.7902C103.221 36.5254 113.462 46.8494 126.095 46.8494Z" fill="#243645"/>
<path d="M46.7008 0.731232H0.974792V46.8273H46.7008V0.731232Z" fill="#243645"/>
</g>
<defs>
<clipPath id="clip0_1_605">
<rect width="220" height="106" fill="white"/>
</clipPath>
</defs>
</svg>
