<svg width="67" height="55" viewBox="0 0 67 55" fill="none" xmlns="http://www.w3.org/2000/svg">
<g clip-path="url(#clip0_1408_5447)">
<path d="M42.678 31.9185H24.8002V22.6846H42.678V31.9185ZM26.3593 30.3587H41.1188V24.2444H26.3593V30.3587Z" fill="#3D3935"/>
<path d="M18.8132 31.9185H17.2541L17.2125 31.1282V22.6846H18.7716L18.8132 23.4749V31.9185Z" fill="#3D3935"/>
<path d="M62.4474 31.9185H56.2318V22.6846H62.4474C64.9628 22.6846 67 24.7227 67 27.2392C67 29.7556 64.9628 31.9185 62.4474 31.9185ZM57.8117 30.3587H62.4682C64.1105 30.3587 65.4617 29.0069 65.4617 27.3639C65.4617 25.5962 64.1105 24.2444 62.4682 24.2444H57.8117V30.3587Z" fill="#3D3935"/>
<path d="M50.2656 31.9185H48.7065L48.6649 31.1282V22.6846H50.224L50.2656 23.4749V31.9185Z" fill="#3D3935"/>
<path d="M11.2256 31.9185H4.55259C2.03723 31.9185 0 29.8804 0 27.3639C0 24.8475 2.03723 22.6846 4.55259 22.6846H11.2256V31.9185ZM4.55259 24.2444C2.91033 24.2444 1.55911 25.5962 1.55911 27.2392C1.55911 29.0069 2.91033 30.3587 4.55259 30.3587H9.66646V24.2444H4.55259Z" fill="#3D3935"/>
<path d="M16.8176 45H11.6413C10.5603 45 9.68724 44.1265 9.68724 43.0451V10.9549C9.68724 9.87348 10.5603 9 11.6413 9H16.8176C17.8985 9 18.7716 9.87348 18.7716 10.9549V43.0451C18.7716 44.1265 17.8985 45 16.8176 45ZM11.6205 10.5598C11.3919 10.5598 11.2256 10.747 11.2256 10.9549V43.0451C11.2256 43.2738 11.4127 43.4402 11.6205 43.4402H16.7968C17.0254 43.4402 17.1917 43.253 17.1917 43.0451V10.9549C17.1917 10.7262 17.0046 10.5598 16.7968 10.5598H11.6205Z" fill="#1B1E21" fill-opacity="0.7"/>
<path d="M24.4052 45H19.229C18.148 45 17.2749 44.1265 17.2749 43.0451V10.9549C17.2749 9.87348 18.148 9 19.229 9H24.4052C25.4862 9 26.3593 9.87348 26.3593 10.9549V43.0451C26.3593 44.1265 25.4862 45 24.4052 45ZM19.2082 10.5598C18.9795 10.5598 18.8132 10.747 18.8132 10.9549V43.0451C18.8132 43.2738 19.0003 43.4402 19.2082 43.4402H24.3844C24.6131 43.4402 24.7794 43.253 24.7794 43.0451V10.9549C24.7794 10.7262 24.5923 10.5598 24.3844 10.5598H19.2082Z" fill="#1B1E21" fill-opacity="0.7"/>
<path d="M48.2699 45H43.0937C42.0127 45 41.1396 44.1265 41.1396 43.0451V10.9549C41.1396 9.87348 42.0127 9 43.0937 9H48.2699C49.3509 9 50.224 9.87348 50.224 10.9549V43.0451C50.224 44.1265 49.3509 45 48.2699 45ZM43.0729 10.5598C42.8442 10.5598 42.6779 10.747 42.6779 10.9549V43.0451C42.6779 43.2738 42.865 43.4402 43.0729 43.4402H48.2491C48.4778 43.4402 48.6441 43.253 48.6441 43.0451V10.9549C48.6441 10.7262 48.457 10.5598 48.2491 10.5598H43.0729Z" fill="#1B1E21" fill-opacity="0.7"/>
<path d="M55.8368 45H50.6606C49.5796 45 48.7065 44.1265 48.7065 43.0451V10.9549C48.7065 9.87348 49.5796 9 50.6606 9H55.8368C56.9178 9 57.7909 9.87348 57.7909 10.9549V43.0451C57.7909 44.1265 56.9178 45 55.8368 45ZM50.6606 10.5598C50.4319 10.5598 50.2656 10.747 50.2656 10.9549V43.0451C50.2656 43.2738 50.4527 43.4402 50.6606 43.4402H55.8368C56.0655 43.4402 56.2318 43.253 56.2318 43.0451V10.9549C56.2318 10.7262 56.0447 10.5598 55.8368 10.5598H50.6606Z" fill="#1B1E21" fill-opacity="0.7"/>
</g>
<defs>
<clipPath id="clip0_1408_5447">
<rect width="67" height="55" fill="white"/>
</clipPath>
</defs>
</svg>
