<svg preserveAspectRatio="none" width="100%" height="100%" overflow="visible" style="display: block;" viewBox="0 0 15.4003 16.5253" fill="none" xmlns="http://www.w3.org/2000/svg">
<path id="Vector" d="M15.4003 0V16.051H10.6125V14.5542C10.0557 15.2193 9.34892 15.7434 8.55006 16.0838C7.75136 16.4243 6.88303 16.5712 6.0164 16.5128C2.82466 16.5128 0 14.2038 0 9.85677V0H4.7876V9.15613C4.74552 9.54633 4.79116 9.94092 4.92095 10.3114C5.05074 10.6819 5.26148 11.0188 5.53813 11.2979C5.81462 11.5769 6.15008 11.7909 6.51986 11.9245C6.88963 12.0582 7.28474 12.1078 7.67615 12.0702C9.43172 12.0702 10.6605 11.051 10.6605 8.77402V0H15.4003Z" fill="var(--fill-0, #243645)"/>
</svg>
