<svg preserveAspectRatio="none" width="100%" height="100%" overflow="visible" style="display: block;" viewBox="0 0 5.80898 23.2484" fill="none" xmlns="http://www.w3.org/2000/svg">
<path id="Vector" d="M0 2.89807C0 2.3249 0.170352 1.76455 0.489424 1.28801C0.808665 0.811471 1.26226 0.439986 1.79292 0.220601C2.32375 0.00121712 2.90764 -0.056115 3.47108 0.055685C4.03453 0.167485 4.55201 0.443526 4.95828 0.848738C5.36456 1.25412 5.64105 1.77046 5.7531 2.33266C5.86531 2.89486 5.80768 3.47764 5.58798 4.00713C5.36811 4.53662 4.9958 4.98939 4.51821 5.30776C4.04045 5.62613 3.47903 5.7961 2.90443 5.7961C2.13548 5.79205 1.39915 5.48532 0.855308 4.94267C0.311466 4.4002 0.004225 3.66549 0 2.89807ZM0.494659 7.19739H5.28226V23.2484H0.494659V7.19739Z" fill="var(--fill-0, #243645)"/>
</svg>
