<svg preserveAspectRatio="none" width="100%" height="100%" overflow="visible" style="display: block;" viewBox="0 0 17.0443 17.0069" fill="none" xmlns="http://www.w3.org/2000/svg">
<path id="Vector" d="M0.000391704 8.51914C-0.0028193 6.83674 0.494378 5.1911 1.42878 3.79065C2.36335 2.3902 3.69321 1.29783 5.25004 0.651822C6.80687 0.00581012 8.52087 -0.164838 10.175 0.161456C11.8292 0.48775 13.3492 1.29632 14.5427 2.48497C15.736 3.67346 16.5492 5.18857 16.8794 6.83843C17.2095 8.48828 17.0417 10.1988 16.3971 11.7536C15.7525 13.3082 14.6603 14.6371 13.2586 15.5721C11.8568 16.5074 10.2085 17.0063 8.52239 17.0063C7.40107 17.0191 6.28837 16.8085 5.2497 16.3866C4.21103 15.9649 3.26716 15.3405 2.47354 14.5499C1.67991 13.7596 1.05225 12.819 0.627553 11.7833C0.202856 10.7477 -0.0104243 9.63798 0.000391704 8.51914ZM12.2248 8.51914C12.2059 7.79286 11.9729 7.08817 11.5548 6.49342C11.1366 5.8985 10.5521 5.44 9.87405 5.17492C9.19619 4.90983 8.45495 4.85031 7.74312 5.00342C7.0313 5.15654 6.38065 5.51571 5.8723 6.03593C5.36411 6.55615 5.02087 7.21447 4.88551 7.92843C4.75031 8.64223 4.82906 9.38015 5.1118 10.0496C5.3947 10.719 5.86908 11.2905 6.47562 11.6924C7.08233 12.0942 7.79416 12.3087 8.52239 12.3089C9.01789 12.3183 9.51002 12.2259 9.96818 12.037C10.4262 11.8482 10.8404 11.5672 11.1848 11.2116C11.5292 10.8561 11.7964 10.4334 11.97 9.97018C12.1434 9.50696 12.2193 9.01288 12.1929 8.51914H12.2248Z" fill="var(--fill-0, #243645)"/>
</svg>
