<svg preserveAspectRatio="none" width="100%" height="100%" overflow="visible" style="display: block;" viewBox="0 0 13.6128 16.9734" fill="none" xmlns="http://www.w3.org/2000/svg">
<path id="Vector" d="M13.6128 11.6753C13.6128 15.3696 10.421 16.9459 6.91007 16.9459C5.50754 17.0699 4.09994 16.7721 2.86844 16.091C1.6371 15.4099 0.637975 14.3767 0 13.1243L4.18122 10.7517C4.3509 11.331 4.71425 11.8348 5.2106 12.1795C5.70712 12.5242 6.30674 12.6891 6.91007 12.6466C8.07515 12.6466 8.64958 12.2803 8.64958 11.6434C8.64958 9.87587 0.670252 10.8155 0.670252 5.27403C0.670252 1.7708 3.63856 0.00324017 7.05371 0.00324017C8.31395 -0.0348696 9.56151 0.263774 10.6671 0.868641C11.7727 1.47334 12.6959 2.36217 13.3415 3.44274L9.14442 5.64029C8.95902 5.21974 8.65516 4.8619 8.26984 4.61031C7.88452 4.35872 7.43447 4.22416 6.97395 4.22298C6.14416 4.22298 5.63344 4.54152 5.63344 5.1307C5.69732 6.96182 13.6128 5.73573 13.6128 11.6753Z" fill="var(--fill-0, #243645)"/>
</svg>
