<svg preserveAspectRatio="none" width="100%" height="100%" overflow="visible" style="display: block;" viewBox="0 0 17.5706 23.4044" fill="none" xmlns="http://www.w3.org/2000/svg">
<path id="Vector" d="M17.5706 0.451817V15.7065C17.5706 21.1046 13.3415 23.3818 9.06466 23.3818C7.56073 23.4934 6.05494 23.1899 4.71223 22.5046C3.36953 21.8193 2.24179 20.7785 1.45239 19.4964L5.56973 17.1238C5.89641 17.7808 6.41338 18.325 7.05356 18.6855C7.69373 19.046 8.4277 19.2066 9.16048 19.146C9.64247 19.2263 10.1366 19.1949 10.6048 19.0543C11.0729 18.9138 11.5023 18.668 11.8601 18.3356C12.2177 18.0032 12.4942 17.5933 12.6681 17.1375C12.842 16.6817 12.9086 16.1922 12.8628 15.7065V14.2256C12.3 14.9167 11.5817 15.4656 10.7667 15.8279C9.95157 16.1903 9.06229 16.3561 8.17099 16.3117C6.0039 16.3117 3.9257 15.4527 2.39321 13.9238C0.860889 12.3949 0 10.3211 0 8.15877C0 5.99646 0.860889 3.92284 2.39321 2.3939C3.9257 0.864953 6.0039 0.00596517 8.17099 0.00596517C9.06179 -0.034674 9.94971 0.132776 10.7643 0.494819C11.5789 0.857031 12.2975 1.40389 12.8628 2.09189V0.499541L17.5706 0.451817ZM12.8628 8.15877C12.8947 7.38443 12.6936 6.61819 12.2856 5.95852C11.8775 5.29902 11.2811 4.77627 10.573 4.45773C9.86487 4.13902 9.07733 4.03903 8.31176 4.17056C7.54619 4.30192 6.83757 4.6589 6.277 5.19531C5.71626 5.73188 5.32925 6.42342 5.16566 7.18106C5.0019 7.93871 5.06916 8.72805 5.35866 9.44725C5.64815 10.1666 6.14653 10.7829 6.78991 11.2173C7.4333 11.6519 8.19211 11.8843 8.96883 11.8849C9.476 11.9207 9.98486 11.8502 10.4628 11.6777C10.9409 11.5052 11.3774 11.2349 11.7443 10.8838C12.1111 10.5327 12.4002 10.1088 12.5929 9.63949C12.7855 9.1702 12.8775 8.66583 12.8628 8.15877Z" fill="var(--fill-0, #243645)"/>
</svg>
