<svg width="18" height="18" viewBox="0 0 18 18" fill="none" xmlns="http://www.w3.org/2000/svg">
<path d="M8.78906 4.25781C6.28906 4.25781 4.29688 6.28906 4.29688 8.75C4.29688 11.25 6.28906 13.2422 8.78906 13.2422C11.25 13.2422 13.2812 11.25 13.2812 8.75C13.2812 6.28906 11.25 4.25781 8.78906 4.25781ZM8.78906 11.6797C7.1875 11.6797 5.85938 10.3906 5.85938 8.75C5.85938 7.14844 7.14844 5.85938 8.78906 5.85938C10.3906 5.85938 11.6797 7.14844 11.6797 8.75C11.6797 10.3906 10.3906 11.6797 8.78906 11.6797ZM14.4922 4.10156C14.4922 3.51562 14.0234 3.04688 13.4375 3.04688C12.8516 3.04688 12.3828 3.51562 12.3828 4.10156C12.3828 4.6875 12.8516 5.15625 13.4375 5.15625C14.0234 5.15625 14.4922 4.6875 14.4922 4.10156ZM17.4609 5.15625C17.3828 3.75 17.0703 2.5 16.0547 1.48438C15.0391 0.46875 13.7891 0.15625 12.3828 0.078125C10.9375 0 6.60156 0 5.15625 0.078125C3.75 0.15625 2.53906 0.46875 1.48438 1.48438C0.46875 2.5 0.15625 3.75 0.078125 5.15625C0 6.60156 0 10.9375 0.078125 12.3828C0.15625 13.7891 0.46875 15 1.48438 16.0547C2.53906 17.0703 3.75 17.3828 5.15625 17.4609C6.60156 17.5391 10.9375 17.5391 12.3828 17.4609C13.7891 17.3828 15.0391 17.0703 16.0547 16.0547C17.0703 15 17.3828 13.7891 17.4609 12.3828C17.5391 10.9375 17.5391 6.60156 17.4609 5.15625ZM15.5859 13.9062C15.3125 14.6875 14.6875 15.2734 13.9453 15.5859C12.7734 16.0547 10.0391 15.9375 8.78906 15.9375C7.5 15.9375 4.76562 16.0547 3.63281 15.5859C2.85156 15.2734 2.26562 14.6875 1.95312 13.9062C1.48438 12.7734 1.60156 10.0391 1.60156 8.75C1.60156 7.5 1.48438 4.76562 1.95312 3.59375C2.26562 2.85156 2.85156 2.26562 3.63281 1.95312C4.76562 1.48438 7.5 1.60156 8.78906 1.60156C10.0391 1.60156 12.7734 1.48438 13.9453 1.95312C14.6875 2.22656 15.2734 2.85156 15.5859 3.59375C16.0547 4.76562 15.9375 7.5 15.9375 8.75C15.9375 10.0391 16.0547 12.7734 15.5859 13.9062Z" fill="#1B1E21"/>
</svg>
