<svg width="71" height="50" viewBox="0 0 71 50" fill="none" xmlns="http://www.w3.org/2000/svg">
<g clip-path="url(#clip0_1408_4826)">
<path d="M61.65 50.0001H3.57608C1.60178 50.0001 0 48.3896 0 46.4046V43.5956C0 42.7903 0.651889 42.1349 1.45278 42.1349H63.7547C64.5556 42.1349 65.2075 42.7903 65.2075 43.5956V46.4046C65.2075 48.3896 63.6057 50.0001 61.6314 50.0001H61.65ZM1.86254 44.0075V46.4046C1.86254 47.3596 2.62618 48.1274 3.57608 48.1274H61.65C62.5999 48.1274 63.3636 47.3596 63.3636 46.4046V44.0075H1.86254Z" fill="#3D3935"/>
<path d="M59.7316 43.6329H5.73663C5.21512 43.6329 4.80536 43.221 4.80536 42.6966V14.176C4.80536 10.7303 7.59917 7.94006 11.0076 7.94006H36.394C36.9155 7.94006 37.3253 8.35205 37.3253 8.87639V18.6517C37.3253 21.0674 39.281 23.015 41.665 23.015H45.3156C45.6136 23.015 45.9116 23.1648 46.0792 23.4082C46.2469 23.6517 46.3027 23.9888 46.191 24.2697L44.8686 27.8839L52.505 23.1461C52.654 23.0524 52.8216 23.015 52.9893 23.015H59.713C60.2345 23.015 60.6443 23.427 60.6443 23.9513V42.7153C60.6443 43.2397 60.2345 43.6517 59.713 43.6517L59.7316 43.6329ZM6.6679 41.7603H58.8004V24.8689H53.2686L43.5648 30.8989C43.2295 31.1049 42.7825 31.0861 42.4845 30.824C42.1679 30.5805 42.0561 30.1498 42.2051 29.7753L44.0118 24.8689H41.7023C38.2752 24.8689 35.5 22.0599 35.5 18.6329V9.794H11.0262C8.62356 9.794 6.68652 11.7603 6.68652 14.1573V41.7603H6.6679Z" fill="#3D3935"/>
<path d="M55.3547 39.176H9.85284C9.33133 39.176 8.92157 38.764 8.92157 38.2397V15.6741C8.92157 13.8764 10.3744 12.4344 12.1438 12.4344H36.4127C36.9342 12.4344 37.3439 12.8464 37.3439 13.3708V18.633C37.3439 21.0487 39.2996 22.9962 41.6836 22.9962H45.3342C45.6322 22.9962 45.9302 23.1461 46.0979 23.3895C46.2655 23.6329 46.3214 23.97 46.2096 24.2509L44.8872 27.8652L52.5236 23.1273C52.6726 23.0337 52.8402 22.9962 53.0079 22.9962H55.336C55.8576 22.9962 56.2673 23.4082 56.2673 23.9326V38.2397C56.2673 38.764 55.8576 39.176 55.336 39.176H55.3547ZM10.7841 37.3034H54.4048V24.8689H53.2686L43.5648 30.8989C43.2295 31.1049 42.7825 31.0861 42.4845 30.824C42.1679 30.5805 42.0561 30.1498 42.2051 29.7753L44.0118 24.8689H41.7023C38.2752 24.8689 35.5 22.0599 35.5 18.633V14.3071H12.1624C11.4174 14.3071 10.8027 14.9251 10.8027 15.6741V37.3034H10.7841Z" fill="#3D3935"/>
<path d="M43.0805 31.0487C42.8757 31.0487 42.6522 30.9738 42.4845 30.8427C42.1679 30.5992 42.0561 30.1685 42.2051 29.794L44.0118 24.8876H41.7023C38.2752 24.8876 35.5 22.0787 35.5 18.6517V6.23595C35.5 2.79026 38.2938 0 41.7023 0H64.7977C68.2248 0 71 2.80899 71 6.23595V18.6142C71 22.0599 68.2062 24.8502 64.7977 24.8502H53.2873L43.5834 30.8801C43.4344 30.9738 43.2668 31.0112 43.0992 31.0112L43.0805 31.0487ZM41.7023 1.87266C39.2996 1.87266 37.3625 3.83895 37.3625 6.23595V18.6142C37.3625 21.03 39.3182 22.9775 41.7023 22.9775H45.3528C45.6508 22.9775 45.9488 23.1273 46.1165 23.3708C46.2841 23.6142 46.34 23.9513 46.2282 24.2322L44.9058 27.8464L52.5422 23.1086C52.6912 23.015 52.8589 22.9775 53.0265 22.9775H64.7977C67.2004 22.9775 69.1375 21.0112 69.1375 18.6142V6.23595C69.1375 3.82022 67.1818 1.87266 64.7977 1.87266H41.7023Z" fill="#1B1E21" fill-opacity="0.7"/>
</g>
<defs>
<clipPath id="clip0_1408_4826">
<rect width="71" height="50" fill="white"/>
</clipPath>
</defs>
</svg>
