<svg width="169" height="86" viewBox="0 0 169 86" fill="none" xmlns="http://www.w3.org/2000/svg">
<path d="M4.36902 49.7729H9.15663V73.1965H4.36902V49.7729Z" fill="#243645"/>
<path d="M11.9335 65.171C11.9303 63.4886 12.4274 61.843 13.3619 60.4425C14.2964 59.0421 15.6263 57.9497 17.1832 57.3037C18.74 56.6577 20.454 56.487 22.1082 56.8133C23.7624 57.1396 25.2824 57.9482 26.4757 59.1368C27.6691 60.3253 28.4824 61.8404 28.8124 63.4903C29.1427 65.1401 28.9748 66.8507 28.3303 68.4054C27.6857 69.96 26.5935 71.289 25.1916 72.224C23.7899 73.1592 22.1417 73.6582 20.4556 73.6582C19.3341 73.671 18.2215 73.4604 17.1829 73.0385C16.1442 72.6167 15.2004 71.9923 14.4067 71.2018C13.613 70.4114 12.9854 69.4708 12.5607 68.4351C12.136 67.3996 11.9228 66.2898 11.9335 65.171ZM24.1578 65.171C24.1391 64.4447 23.906 63.74 23.4879 63.1453C23.0698 62.5504 22.4852 62.0919 21.8072 61.8268C21.1292 61.5617 20.388 61.5022 19.6763 61.6553C18.9645 61.8084 18.3138 62.1676 17.8055 62.6878C17.2973 63.208 16.954 63.8663 16.8187 64.5803C16.6834 65.2941 16.7622 66.032 17.045 66.7015C17.3279 67.3709 17.8023 67.9424 18.4088 68.3442C19.0155 68.7461 19.7273 68.9606 20.4556 68.9607C20.9536 68.9747 21.4493 68.8855 21.9111 68.6987C22.373 68.5118 22.7911 68.2316 23.1391 67.8754C23.4869 67.5193 23.7571 67.0952 23.9324 66.6298C24.1078 66.1642 24.1845 65.6676 24.1578 65.171Z" fill="#243645"/>
<path d="M48.2233 57.1454V72.4001C48.2233 77.7982 43.9943 80.0754 39.7174 80.0754C38.2134 80.187 36.7076 79.8835 35.3649 79.1982C34.0222 78.5129 32.8945 77.4721 32.1051 76.19L36.2224 73.8174C36.5491 74.4744 37.0661 75.0186 37.7063 75.3791C38.3464 75.7396 39.0804 75.9002 39.8132 75.8396C40.2952 75.9199 40.7893 75.8885 41.2575 75.7479C41.7256 75.6074 42.155 75.3616 42.5128 75.0292C42.8704 74.6968 43.1469 74.2869 43.3208 73.8311C43.4947 73.3753 43.5613 72.8858 43.5155 72.4001V70.9192C42.9527 71.6103 42.2345 72.1592 41.4194 72.5215C40.6043 72.8839 39.715 73.0497 38.8237 73.0053C36.6566 73.0053 34.5784 72.1463 33.0459 70.6174C31.5136 69.0885 30.6527 67.0147 30.6527 64.8524C30.6527 62.6901 31.5136 60.6164 33.0459 59.0875C34.5784 57.5586 36.6566 56.6996 38.8237 56.6996C39.7145 56.6589 40.6024 56.8264 41.417 57.1884C42.2316 57.5506 42.9502 58.0975 43.5155 58.7855V57.1931L48.2233 57.1454ZM43.5155 64.8524C43.5474 64.078 43.3463 63.3118 42.9383 62.6521C42.5302 61.9926 41.9338 61.4699 41.2257 61.1513C40.5176 60.8326 39.73 60.7326 38.9645 60.8642C38.1989 60.9955 37.4903 61.3525 36.9297 61.8889C36.369 62.4255 35.982 63.117 35.8184 63.8747C35.6546 64.6323 35.7219 65.4217 36.0114 66.1409C36.3009 66.8602 36.7992 67.4766 37.4426 67.9109C38.086 68.3455 38.8448 68.5779 39.6215 68.5785C40.1287 68.6143 40.6376 68.5438 41.1155 68.3713C41.5936 68.1988 42.0301 67.9285 42.397 67.5774C42.7638 67.2263 43.0529 66.8024 43.2456 66.3331C43.4382 65.8638 43.5302 65.3594 43.5155 64.8524Z" fill="#243645"/>
<path d="M50.9843 65.171C50.9811 63.4886 51.4783 61.843 52.4127 60.4425C53.3472 59.0421 54.6771 57.9497 56.2339 57.3037C57.7908 56.6577 59.5048 56.487 61.1589 56.8133C62.8131 57.1396 64.3331 57.9482 65.5266 59.1368C66.7199 60.3253 67.5331 61.8404 67.8633 63.4903C68.1934 65.1401 68.0256 66.8507 67.381 68.4054C66.7364 69.96 65.6442 71.289 64.2425 72.224C62.8406 73.1592 61.1924 73.6582 59.5063 73.6582C58.385 73.671 57.2723 73.4604 56.2336 73.0385C55.1949 72.6167 54.251 71.9923 53.4574 71.2018C52.6638 70.4114 52.0361 69.4708 51.6114 68.4351C51.1867 67.3996 50.9735 66.2898 50.9843 65.171ZM63.2087 65.171C63.1898 64.4447 62.9567 63.74 62.5386 63.1453C62.1205 62.5504 61.536 62.0919 60.8579 61.8268C60.1801 61.5617 59.4388 61.5022 58.727 61.6553C58.0152 61.8084 57.3645 62.1676 56.8562 62.6878C56.348 63.208 56.0048 63.8663 55.8694 64.5803C55.7342 65.2941 55.8129 66.032 56.0957 66.7015C56.3786 67.3709 56.853 67.9424 57.4595 68.3442C58.0662 68.7461 58.7781 68.9606 59.5063 68.9607C60.0018 68.9702 60.4939 68.8778 60.9521 68.6889C61.4101 68.5 61.8243 68.2191 62.1687 67.8635C62.5131 67.508 62.7803 67.0852 62.9539 66.622C63.1273 66.1588 63.2031 65.6647 63.1768 65.171H63.2087Z" fill="#243645"/>
<path d="M70.2469 52.8461C70.2469 52.2729 70.4173 51.7126 70.7364 51.236C71.0556 50.7595 71.5092 50.388 72.0399 50.1686C72.5707 49.9492 73.1546 49.8919 73.718 50.0037C74.2815 50.1155 74.799 50.3915 75.2052 50.7967C75.6115 51.2021 75.888 51.7185 76 52.2807C76.1123 52.8429 76.0546 53.4256 75.8349 53.9551C75.6151 54.4846 75.2428 54.9374 74.7652 55.2558C74.2874 55.5741 73.726 55.7441 73.1514 55.7441C72.3824 55.74 71.6461 55.4333 71.1023 54.8907C70.5584 54.3482 70.2512 53.6135 70.2469 52.8461ZM70.7416 57.1454H75.5292V73.1964H70.7416V57.1454Z" fill="#243645"/>
<path d="M96.4028 65.171C96.4608 66.232 96.308 67.294 95.9531 68.2958C95.5981 69.2976 95.0481 70.2195 94.3346 71.0083C93.6211 71.7972 92.7584 72.4374 91.7959 72.8922C90.8334 73.347 89.7904 73.6074 88.7267 73.6583C87.8337 73.701 86.9421 73.5479 86.115 73.2094C85.2877 72.871 84.545 72.3557 83.9391 71.6997V79.6614H79.1515V57.1455H83.9391V58.6582C84.545 58.0023 85.2877 57.4869 86.115 57.1485C86.9421 56.8101 87.8337 56.657 88.7267 56.6996C89.789 56.7505 90.8307 57.0104 91.792 57.4642C92.7535 57.9181 93.6155 58.5569 94.3287 59.344C95.0421 60.1312 95.5923 61.051 95.9482 62.051C96.3043 63.051 96.4588 64.1113 96.4028 65.171ZM91.6152 65.171C91.5963 64.4236 91.358 63.6982 90.9299 63.0845C90.5019 62.4711 89.9029 61.996 89.2072 61.7188C88.5114 61.4414 87.7492 61.3738 87.0154 61.5244C86.2814 61.6748 85.6078 62.0368 85.078 62.5655C84.5482 63.0941 84.1855 63.7661 84.0346 64.4985C83.8838 65.2308 83.9516 65.9912 84.2294 66.6854C84.5074 67.3796 84.9833 67.9774 85.5983 68.4044C86.2133 68.8315 86.9404 69.0693 87.6894 69.0882C88.2121 69.1214 88.7358 69.0425 89.2256 68.857C89.7152 68.6713 90.1593 68.3833 90.5282 68.0123C90.897 67.6412 91.1821 67.1957 91.3641 66.7056C91.5459 66.2156 91.6208 65.6923 91.5833 65.171H91.6152Z" fill="#243645"/>
<path d="M111.308 68.3875C111.308 72.0817 108.117 73.6581 104.606 73.6581C103.203 73.782 101.796 73.4842 100.564 72.8031C99.3328 72.122 98.3337 71.0889 97.6957 69.8365L101.877 67.4639C102.047 68.0431 102.41 68.547 102.906 68.8917C103.403 69.2363 104.002 69.4012 104.606 69.3588C105.771 69.3588 106.345 68.9925 106.345 68.3556C106.345 66.588 98.3659 67.5276 98.3659 61.9862C98.3659 58.483 101.334 56.7154 104.749 56.7154C106.01 56.6773 107.257 56.9759 108.363 57.5808C109.468 58.1855 110.392 59.0743 111.037 60.1549L106.84 62.3525C106.655 61.9319 106.351 61.5741 105.966 61.3225C105.58 61.0709 105.13 60.9363 104.67 60.9351C103.84 60.9351 103.329 61.2537 103.329 61.8429C103.393 63.674 111.308 62.4479 111.308 68.3875Z" fill="#243645"/>
<path d="M128.927 57.1455V73.1965H124.139V71.6997C123.582 72.3648 122.876 72.8889 122.077 73.2294C121.278 73.5698 120.41 73.7167 119.543 73.6583C116.351 73.6583 113.527 71.3493 113.527 67.0023V57.1455H118.314V66.3016C118.272 66.6918 118.318 67.0864 118.448 67.4569C118.577 67.8274 118.788 68.1643 119.065 68.4434C119.341 68.7225 119.677 68.9364 120.046 69.07C120.416 69.2037 120.811 69.2533 121.203 69.2157C122.958 69.2157 124.187 68.1965 124.187 65.9195V57.1455H128.927Z" fill="#243645"/>
<path d="M156.599 63.3554V73.1962H151.811V63.7696C151.811 62.1772 151.029 61.1262 149.497 61.1262C147.965 61.1262 146.976 62.2568 146.976 64.1517V73.1962H142.188V63.7696C142.188 62.1772 141.422 61.1262 139.874 61.1262C138.326 61.1262 137.369 62.2568 137.369 64.1517V73.1962H132.581V57.1454H137.369V58.6263C137.869 57.9722 138.525 57.4533 139.278 57.1169C140.031 56.7803 140.855 56.6368 141.678 56.6995C142.503 56.6594 143.326 56.8336 144.064 57.2046C144.802 57.5757 145.431 58.1313 145.891 58.8173C146.425 58.1001 147.132 57.5297 147.947 57.1594C148.762 56.7891 149.658 56.6307 150.551 56.6995C154.189 56.6995 156.599 59.3428 156.599 63.3554Z" fill="#243645"/>
<path d="M160.685 57.05C162.659 57.05 164.26 55.453 164.26 53.4831C164.26 51.5132 162.659 49.9163 160.685 49.9163C158.711 49.9163 157.11 51.5132 157.11 53.4831C157.11 55.453 158.711 57.05 160.685 57.05Z" fill="#243645"/>
<path d="M58.5489 37.6233C67.7946 37.6233 75.2895 30.1446 75.2895 20.9194C75.2895 11.6941 67.7946 4.21558 58.5489 4.21558C49.3033 4.21558 41.8081 11.6941 41.8081 20.9194C41.8081 30.1446 49.3033 37.6233 58.5489 37.6233Z" fill="#243645"/>
<path d="M95.9719 37.6233C105.218 37.6233 112.713 30.1446 112.713 20.9194C112.713 11.6941 105.218 4.21558 95.9719 4.21558C86.7262 4.21558 79.2311 11.6941 79.2311 20.9194C79.2311 30.1446 86.7262 37.6233 95.9719 37.6233Z" fill="#243645"/>
<path d="M37.8661 4.21558H4.40076V37.6072H37.8661V4.21558Z" fill="#243645"/>
</svg>
