<svg width="14" height="19" viewBox="0 0 14 19" fill="none" xmlns="http://www.w3.org/2000/svg">
<path d="M1.6875 6.64453C1.6875 8.22656 2.53125 10.1953 3.76172 12.1641C4.74609 13.7461 5.90625 15.1523 6.75 16.1016C7.59375 15.1523 8.75391 13.7461 9.73828 12.1641C10.9688 10.1953 11.8125 8.22656 11.8125 6.64453C11.8125 3.9375 9.5625 1.6875 6.75 1.6875C3.9375 1.6875 1.6875 3.9375 1.6875 6.64453ZM6.75 0C10.4766 0 13.5 2.95312 13.5 6.64453C13.5 10.8281 9.28125 15.8555 7.52344 17.7539C7.10156 18.2109 6.39844 18.2109 5.97656 17.7539C4.21875 15.8555 0 10.8281 0 6.64453C0 2.95312 3.02344 0 6.75 0ZM5.625 6.75C5.625 7.38281 6.11719 7.875 6.75 7.875C7.38281 7.875 7.875 7.38281 7.875 6.75C7.875 6.11719 7.38281 5.625 6.75 5.625C6.11719 5.625 5.625 6.11719 5.625 6.75ZM9.5625 6.75C9.5625 8.29688 8.29688 9.5625 6.75 9.5625C5.20312 9.5625 3.9375 8.29688 3.9375 6.75C3.9375 5.20312 5.20312 3.9375 6.75 3.9375C8.29688 3.9375 9.5625 5.20312 9.5625 6.75Z" fill="#2D2D2D"/>
</svg>
