<svg width="13" height="18" viewBox="0 0 13 18" fill="none" xmlns="http://www.w3.org/2000/svg">
<path d="M2.25 1.6875C1.93359 1.6875 1.6875 1.93359 1.6875 2.25V15.75C1.6875 16.0664 1.93359 16.3125 2.25 16.3125H10.125C10.4414 16.3125 10.6875 16.0664 10.6875 15.75V2.25C10.6875 1.93359 10.4414 1.6875 10.125 1.6875H2.25ZM0 2.25C0 1.01953 1.01953 0 2.25 0H10.125C11.3555 0 12.375 1.01953 12.375 2.25V15.75C12.375 16.9805 11.3555 18 10.125 18H2.25C1.01953 18 0 16.9805 0 15.75V2.25ZM4.78125 12.9375H7.59375C8.05078 12.9375 8.4375 13.3242 8.4375 13.7812C8.4375 14.2383 8.05078 14.625 7.59375 14.625H4.78125C4.32422 14.625 3.9375 14.2383 3.9375 13.7812C3.9375 13.3242 4.32422 12.9375 4.78125 12.9375Z" fill="#2D2D2D"/>
</svg>
