<svg width="19" height="19" viewBox="0 0 19 19" fill="none" xmlns="http://www.w3.org/2000/svg">
<path d="M4.11328 0.316406C5.0625 0 6.11719 0.457031 6.53906 1.37109L7.91016 4.42969C8.29688 5.27344 8.05078 6.22266 7.34766 6.78516L6.50391 7.48828C7.41797 9.24609 8.82422 10.6875 10.5469 11.6367L11.2852 10.7227C11.8477 10.0195 12.832 9.77344 13.6406 10.1602L16.6992 11.5664C17.6133 11.9531 18.0703 13.0078 17.7539 13.957C17.0508 16.1719 14.8359 18.0703 12.0938 17.5781C6.01172 16.4883 1.58203 12.0938 0.492188 5.97656C0 3.26953 1.93359 1.05469 4.11328 0.316406ZM4.99219 2.07422C4.92188 1.93359 4.78125 1.86328 4.64062 1.89844C3.05859 2.46094 1.86328 3.97266 2.17969 5.66016C3.12891 11.0742 6.99609 14.9766 12.4102 15.9258C14.0977 16.207 15.6445 15.0117 16.1719 13.4297C16.207 13.2891 16.1367 13.1484 15.9961 13.0781L12.9375 11.6719C12.832 11.6367 12.6914 11.6719 12.5859 11.7773L11.4258 13.2539C11.1797 13.5352 10.7578 13.6406 10.4062 13.4648C7.83984 12.2695 5.80078 10.1602 4.67578 7.55859C4.53516 7.20703 4.64062 6.82031 4.92188 6.57422L6.29297 5.48438C6.39844 5.41406 6.43359 5.27344 6.39844 5.13281L4.99219 2.07422Z" fill="#2D2D2D"/>
</svg>
