<svg width="22" height="15" viewBox="0 0 22 15" fill="none" xmlns="http://www.w3.org/2000/svg">
<path d="M20.8984 2.38281C20.6641 1.44531 19.9219 0.703125 19.0234 0.46875C17.3438 0 10.7031 0 10.7031 0C10.7031 0 4.02344 0 2.34375 0.46875C1.44531 0.703125 0.703125 1.44531 0.46875 2.38281C0 4.02344 0 7.53906 0 7.53906C0 7.53906 0 11.0156 0.46875 12.6953C0.703125 13.6328 1.44531 14.3359 2.34375 14.5703C4.02344 15 10.7031 15 10.7031 15C10.7031 15 17.3438 15 19.0234 14.5703C19.9219 14.3359 20.6641 13.6328 20.8984 12.6953C21.3672 11.0156 21.3672 7.53906 21.3672 7.53906C21.3672 7.53906 21.3672 4.02344 20.8984 2.38281ZM8.51562 10.7031V4.375L14.0625 7.53906L8.51562 10.7031Z" fill="#1B1E21"/>
</svg>
